<svg width="430" height="428" viewBox="0 0 430 428" fill="none" xmlns="http://www.w3.org/2000/svg">
<path d="M370.425 85.1304C359.601 74.3072 347.859 64.9972 335.426 57.1432L282.498 110.072C295.926 116.278 308.512 124.899 319.565 135.971C361.594 178 368.49 241.771 340.369 291.002L371.172 367.149L371.612 367.896C448.812 289.374 448.448 163.135 370.425 85.1304Z" fill="white"/>
<path d="M0 133.232L302.726 300.6L131.565 0" fill="#EC6762"/>
<path d="M295.543 337.169C245.909 367.512 180.203 361.248 137.255 318.3C126.182 307.228 117.562 294.661 111.355 281.233L58.4268 334.142C66.2617 346.555 75.5907 358.317 86.3949 369.141C164.82 447.566 291.98 447.566 370.424 369.141C370.788 368.777 371.114 368.394 371.478 368.03L370.712 367.57L295.543 337.169Z" fill="white"/>
</svg>
