<svg width="207" height="207" viewBox="0 0 207 207" fill="none" xmlns="http://www.w3.org/2000/svg">
<path d="M174.138 15.5809C168.089 9.55542 161.527 4.37246 154.579 0L125 29.4661C132.504 32.9214 139.538 37.7204 145.715 43.8845C169.203 67.2825 173.056 102.785 157.341 130.193L174.555 172.584L174.801 173C217.944 129.286 217.741 59.0068 174.138 15.5809Z" fill="white"/>
<path d="M132.551 156.261C104.805 173.218 68.0746 169.718 44.0659 145.715C37.8763 139.528 33.0575 132.505 29.5879 125L0 154.569C4.37982 161.506 9.59491 168.08 15.6346 174.128C59.4756 217.957 130.559 217.957 174.411 174.128C174.614 173.925 174.797 173.711 175 173.507L174.572 173.25L132.551 156.261Z" fill="#EC6762"/>
</svg>
